<?xml version="1.0" encoding="UTF-8" standalone="no"?>
<!-- Created with Inkscape (http://www.inkscape.org/) -->

<svg
   width="63.5mm"
   height="63.5mm"
   viewBox="0 0 63.5 63.5"
   version="1.1"
   id="svg1"
   xml:space="preserve"
   inkscape:version="1.4.2 (f4327f4, 2025-05-13)"
   sodipodi:docname="logogold.svg"
   xmlns:inkscape="http://www.inkscape.org/namespaces/inkscape"
   xmlns:sodipodi="http://sodipodi.sourceforge.net/DTD/sodipodi-0.dtd"
   xmlns="http://www.w3.org/2000/svg"
   xmlns:svg="http://www.w3.org/2000/svg"><sodipodi:namedview
     id="namedview1"
     pagecolor="#ffffff"
     bordercolor="#000000"
     borderopacity="0.25"
     inkscape:showpageshadow="2"
     inkscape:pageopacity="0.0"
     inkscape:pagecheckerboard="0"
     inkscape:deskcolor="#d1d1d1"
     inkscape:document-units="mm"
     inkscape:zoom="0.71891835"
     inkscape:cx="161.35351"
     inkscape:cy="189.86857"
     inkscape:window-width="1920"
     inkscape:window-height="1009"
     inkscape:window-x="-8"
     inkscape:window-y="-8"
     inkscape:window-maximized="1"
     inkscape:current-layer="layer1" /><defs
     id="defs1" /><g
     inkscape:label="Capa 1"
     inkscape:groupmode="layer"
     id="layer1"
     transform="translate(-62.529373,-98.431023)"><path
       style="fill:#d1af39"
       d="m 90.268179,152.7588 c -0.40931,-0.40932 -0.18984,-36.93426 0.23026,-38.32049 1.00093,-3.30274 3.90701,-5.9644 7.35605,-6.73734 2.213991,-0.49617 2.02765,-2.22415 2.02061,18.73805 l -0.006,18.69096 -0.60818,1.47838 c -1.21032,2.94211 -3.84514,5.28387 -6.70119,5.95585 -1.76443,0.41514 -2.04674,0.43911 -2.29127,0.19459 z m 18.627811,-0.43569 c -0.27221,-0.71596 -0.38303,-42.04622 -0.11666,-43.50719 0.22245,-1.22013 0.16301,-1.25589 4.99138,3.00309 l 4.37944,3.86298 -0.0724,15.12678 -0.0724,15.12678 -0.87101,1.76892 c -1.69061,3.43344 -7.45935,6.66755 -8.23834,4.61864 z m -32.250021,-3.66329 -4.5662,-3.97019 0.0763,-15.12566 0.0763,-15.12566 0.75459,-1.4552 c 1.72937,-3.33503 6.76971,-6.51294 8.3067,-5.23734 0.37828,0.31394 0.50169,44.52379 0.12494,44.75663 -0.11356,0.0702 -2.26127,-1.65897 -4.77268,-3.84258 z"
       id="path1" /></g></svg>
